<svg id="Layer_1" data-name="Layer 1" xmlns="http://www.w3.org/2000/svg" viewBox="0 0 1000 1000"><defs><style>.cls-1{fill:#010a14;}.cls-2,.cls-3{fill:#233681;}.cls-3{fill-rule:evenodd;}</style></defs><title>Sykes_Logo</title><path class="cls-1" d="M500,1000C224.3,1000,0,775.7,0,500S224.3,0,500,0s500,224.3,500,500S775.7,1000,500,1000Zm0-977C237,23,23,237,23,500S237,977,500,977,977,763,977,500,763,23,500,23Z"/><path class="cls-2" d="M130.55,495H117.32v-9.71h24v69.38H130.55Z"/><path class="cls-2" d="M219.44,518.31c6.49,2.81,10.32,9.2,10.32,17.37,0,13.44-12.47,20-26.47,20s-26.47-6.59-26.47-20c0-8.17,3.88-14.56,10.53-17.37a17.46,17.46,0,0,1-8.84-15.63c0-12.31,12.31-18.39,24.78-18.39s24.83,6.08,24.83,18.39A17.91,17.91,0,0,1,219.44,518.31Zm-15.94,28c8,0,15.33-3.58,15.33-11.85s-7.36-11.6-15.33-11.6-15.28,3.32-15.28,11.6C188.22,543,195.52,546.31,203.49,546.31Zm-13.9-41.79c0,7.36,6.64,10.58,13.85,10.58s13.74-3.27,13.74-10.58c0-7.51-6.59-10.63-13.9-10.63C195.73,493.89,189.6,497.06,189.6,504.52Z"/><path class="cls-2" d="M810.56,497.21A29.72,29.72,0,0,0,796.21,494c-12.21,0-22.38,6.59-22.33,23.61,4.5-5.72,10.83-7.66,17.47-7.66,12.11,0,24.32,5.88,24.32,22.17,0,14.66-10.63,23.55-26.36,23.55-19.16,0-26.36-14.87-26.36-33.21,0-22.38,9.61-38.22,31.52-38.22q10.19,0,17,2.91Zm-5.88,35.31c0-8.84-5.57-13.54-14.87-13.54s-14.2,6.69-14.2,13.39a13.72,13.72,0,0,0,14.15,14C798.86,546.36,804.69,541,804.69,532.52Z"/><path class="cls-2" d="M891.83,545v9.66H845.29V546l21.31-20.9c8-7.82,11.09-12.82,11.09-19.21,0-8.63-5.88-11.75-13.54-11.75a33.19,33.19,0,0,0-16.5,5l-1.74-9.4a41.3,41.3,0,0,1,19.88-5.36c12.67,0,23.35,6.39,23.35,21.41,0,9.71-6.49,17.83-15.07,25.9L859.85,545Z"/><path class="cls-3" d="M676.24,517.29c0-2.07-.05-4.15-.15-6.21-.07-1.51-.22-3-.34-4.51s-.18-2.87-.32-4.3c-.17-1.65-.4-3.28-.62-4.92-.16-1.25-.28-2.52-.47-3.76-.25-1.67-.57-3.31-.87-5-.22-1.19-.39-2.4-.63-3.59-.34-1.71-.76-3.39-1.15-5.08-.26-1.1-.48-2.22-.75-3.31-.45-1.78-1-3.53-1.47-5.29-.28-1-.53-2-.83-2.95-.56-1.82-1.18-3.61-1.79-5.41-.3-.88-.57-1.78-.88-2.66-.67-1.85-1.39-3.67-2.12-5.49-.31-.79-.6-1.61-.93-2.39-.77-1.86-1.61-3.69-2.44-5.51-.33-.72-.63-1.46-1-2.18-.89-1.87-1.83-3.71-2.78-5.55-.33-.65-.64-1.3-1-1.94-1-1.86-2-3.69-3.1-5.51-.34-.59-.66-1.19-1-1.78-1.1-1.84-2.25-3.65-3.41-5.44-.35-.54-.67-1.09-1-1.63-1.18-1.79-2.42-3.54-3.66-5.28-.37-.52-.72-1.06-1.1-1.57-1.26-1.73-2.57-3.41-3.89-5.09-.4-.5-.77-1-1.17-1.52-1.33-1.65-2.71-3.26-4.09-4.86-.43-.5-.84-1-1.28-1.5-1.39-1.57-2.83-3.1-4.27-4.62-.42-.44-.82-.9-1.24-1.34h0l-.59-.63-3,2.72c-9.08,8.22-30.86,22.82-50.38,21.31-.76-.07-7.35-.63-9.48-.75l-1-.05q-3-.16-5.86-.23l-1.25,0c-1.81,0-3.6,0-5.34,0l-1.39,0c-1.66,0-3.3.07-4.9.13l-1.46.07c-1.54.08-3.06.17-4.54.28l-1.47.12q-2.16.18-4.24.41l-1.44.17q-2,.24-4,.53l-1.41.21c-1.26.2-2.49.41-3.7.63l-1.38.26q-1.76.34-3.44.72l-1.34.3q-1.63.38-3.2.79l-1.31.35c-1,.27-2,.55-2.93.84l-1.31.4c-.9.28-1.77.57-2.63.87l-1.34.47c-.79.28-1.55.57-2.3.86l-1.42.55c-.66.26-1.3.53-1.93.8l-1.54.67-1.51.7c-.59.27-1.17.55-1.73.83l-.36.17-.09.05C476.73,438.94,471,446.79,471,446.79h0l0,.07a5.4,5.4,0,0,0-.76,1.18c-2.52,4.24-8.88,18.49,10.84,29.4l.61.38.1,0c10.16,6.44,27.88,12.18,58.57,12.19,98.65,0,100.5,74.71,98.09,91.27C628.61,648.6,550.68,684,499.65,684a163.1,163.1,0,0,1-100.53-34.59,6.37,6.37,0,0,0-9.23,8.77,176.81,176.81,0,0,0,40.79,24.4c.06,0,.11.11.17.14,2.14.92,3.31,1.36,4.79,1.93l.12,0,1.59.63c4,1.6,6.78,2.4,11.16,3.75l.43.11q5.68,1.7,11.52,3l1.09.23q5.6,1.24,11.32,2.12l.87.14c3.84.56,7.72,1,11.63,1.3l2.4.17c3.92.26,7.87.44,11.86.44h0c4.49,0,8.94-.22,13.35-.55a353.93,353.93,0,0,0,36.83-2,5.33,5.33,0,0,1,6.08,4.47,4.78,4.78,0,0,1-.8,3.17L546.81,716c38.54-20.86,123-72.54,129.5-196C676.36,519.09,676.25,518.19,676.24,517.29ZM519.86,448.06h0c-3.62,1-7.34-.9-8.33-4.18s1.14-6.73,4.76-7.7,7.35.9,8.34,4.18S523.48,447.09,519.86,448.06Zm111.66,13.09a110.9,110.9,0,0,0-45.63-25.24q3.92-1.33,7.64-2.93h0a118.42,118.42,0,0,0,29.75-18.67,143.31,143.31,0,0,1,33.37,61.56,162.79,162.79,0,0,1,4.93,31.46A111.71,111.71,0,0,0,631.53,461.15Z"/><path class="cls-3" d="M323.76,522.71c0,2.07.05,4.15.15,6.21.07,1.51.22,3,.34,4.51s.18,2.87.32,4.3c.17,1.65.4,3.28.62,4.92.16,1.25.28,2.52.47,3.76.25,1.67.57,3.31.87,5,.22,1.19.39,2.4.63,3.59.34,1.71.76,3.39,1.15,5.08.26,1.1.48,2.22.75,3.31.45,1.78,1,3.53,1.47,5.29.28,1,.53,2,.83,2.95.56,1.82,1.18,3.61,1.79,5.41.3.88.57,1.78.88,2.66.67,1.85,1.39,3.67,2.12,5.49.31.79.6,1.61.93,2.39.77,1.86,1.61,3.69,2.44,5.51.33.72.63,1.46,1,2.18.89,1.87,1.83,3.71,2.78,5.55.33.65.64,1.3,1,1.94,1,1.86,2,3.69,3.1,5.51.34.59.66,1.19,1,1.78,1.1,1.84,2.25,3.65,3.41,5.44.35.54.67,1.09,1,1.63,1.18,1.79,2.42,3.54,3.66,5.28.37.52.72,1.06,1.1,1.57,1.26,1.73,2.57,3.41,3.89,5.09.4.5.77,1,1.17,1.52,1.33,1.65,2.71,3.26,4.09,4.86.43.5.84,1,1.28,1.5,1.39,1.57,2.83,3.1,4.27,4.62.42.44.82.9,1.24,1.34h0l.59.63,3-2.72c9.08-8.22,30.86-22.82,50.38-21.31.76.07,7.35.63,9.48.75l1,.05q3,.16,5.86.23l1.25,0c1.81,0,3.6,0,5.34,0l1.39,0c1.66,0,3.3-.07,4.9-.13l1.46-.07c1.54-.08,3.06-.17,4.54-.28l1.47-.12q2.16-.18,4.24-.41l1.44-.17q2-.24,4-.53l1.41-.21c1.26-.2,2.49-.41,3.7-.63l1.38-.26q1.76-.34,3.44-.72l1.34-.3q1.63-.38,3.2-.79l1.31-.35c1-.27,2-.55,2.93-.84l1.31-.4c.9-.28,1.77-.57,2.63-.87l1.34-.47c.79-.28,1.55-.57,2.3-.86l1.42-.55c.66-.26,1.3-.53,1.93-.8l1.54-.67,1.51-.7c.59-.27,1.17-.55,1.73-.83l.36-.17.09-.05c14.55-7.29,20.27-15.14,20.27-15.14h0l0-.07a5.4,5.4,0,0,0,.76-1.18c2.52-4.24,8.88-18.49-10.84-29.4l-.61-.38-.1,0C508.08,555.76,490.35,550,459.66,550c-98.65,0-100.5-74.71-98.09-91.27C371.39,391.4,449.32,356,500.35,356a163.1,163.1,0,0,1,100.53,34.59,6.37,6.37,0,0,0,9.23-8.77,176.81,176.81,0,0,0-40.79-24.4c-.06,0-.11-.11-.17-.14-2.14-.92-3.31-1.36-4.79-1.93l-.12,0-1.59-.63c-4-1.6-6.78-2.4-11.16-3.75l-.43-.11q-5.68-1.7-11.52-3l-1.09-.23q-5.6-1.24-11.32-2.12l-.87-.14c-3.84-.56-7.72-1-11.63-1.3l-2.4-.17c-3.92-.26-7.87-.44-11.86-.44h0c-4.49,0-8.94.22-13.35.55a353.93,353.93,0,0,0-36.83,2,5.33,5.33,0,0,1-6.08-4.47,4.78,4.78,0,0,1,.8-3.17l8.3-14.32c-38.54,20.86-123,72.54-129.5,196C323.64,520.91,323.75,521.81,323.76,522.71Zm156.38,69.23h0c3.62-1,7.34.9,8.33,4.18s-1.14,6.73-4.76,7.7-7.35-.9-8.34-4.18S476.52,592.91,480.14,591.94ZM368.47,578.85a110.9,110.9,0,0,0,45.63,25.24q-3.92,1.33-7.64,2.93h0a118.42,118.42,0,0,0-29.75,18.67,143.31,143.31,0,0,1-33.37-61.56,162.79,162.79,0,0,1-4.93-31.46A111.71,111.71,0,0,0,368.47,578.85Z"/><path class="cls-1" d="M168.52,277.3l24.3,16.79c-5.42,2.85-21.35,18.52-29.61,33.33-5.91,10.6-8,20.72.45,25.41,7.67,4.28,13.67-2,19.66-8l15-14.87c19.32-19.17,35.05-25.26,54.61-14.35,22.75,12.69,27.68,40.59,10.81,70.84C253.54,404.75,237,422.37,227.9,428l-25.08-17.1c5.11-1.22,23.9-19.86,33.42-36.95,6.27-11.24,8.78-22.18.46-26.82-5.76-3.21-10.87-.91-18.3,6.81l-15.74,16.62c-14.61,13.53-32.43,26.36-54.73,13.92-23.12-12.89-27.76-40.88-11.4-70.21C146.59,296.22,158,284.51,168.52,277.3Z"/><path class="cls-1" d="M309.44,253.59l-99.26-42.14,34.54-22.32,60.54,25.42,2.13-65.92,33-21.3-2,107.58L367,279.29,338.13,298Z"/><path class="cls-1" d="M479,162.16l30.49-59.38,38.16-1.46-40.37,74.84,55.32,66.56-42.34,1.62L478,191.2l-19.55.75,2.1,54.68-34.4,1.32-5.45-142,34.4-1.32L457.34,163Z"/><path class="cls-1" d="M688.89,313.41l-92.82-55.77,73.18-121.78,91.92,55.23-14.93,24.84-62.42-37.51L670.25,201l55.33,33.24L710.71,259l-55.33-33.25-14.93,24.84,63.31,38Z"/><path class="cls-1" d="M882.14,370.52l-27.3,11.26c.56-6.1-3.93-28-11.86-43-5.68-10.73-13.06-18-21.56-13.45-7.77,4.11-5.79,12.54-4,20.83l4.32,20.68c5.58,26.64,2.13,43.15-17.66,53.63-23,12.19-49.12,1.14-65.32-29.46-9.79-18.49-15.58-41.95-15.31-52.63l28-11.74c-1.76,5,3.67,30.85,12.82,48.14,6,11.38,13.84,19.43,22.25,15,5.82-3.08,6.68-8.63,4.24-19.05l-5.39-22.25c-3.41-19.63-4.48-41.55,18.08-53.5,23.39-12.39,49.4-1.06,65.12,28.62C878.2,341.82,881.8,357.8,882.14,370.52Z"/><path class="cls-1" d="M255.93,665.75l-17.07,6.07c.55-3.67-1.43-17-5.75-26.31-3.09-6.64-7.35-11.21-12.7-8.72-4.89,2.28-4,7.42-3.17,12.49l1.92,12.63c2.48,16.26-.2,26.15-12.65,31.94-14.49,6.74-30-.65-38.87-19.6-5.34-11.45-8.06-25.79-7.52-32.23l17.51-6.34c-1.25,2.95,1.17,18.76,6.16,29.46,3.28,7,7.78,12.13,13.07,9.66,3.67-1.71,4.38-5,3.25-11.41l-2.51-13.6c-1.4-12-1.29-25.25,12.91-31.86,14.72-6.85,30.21.71,38.78,19.08C254.52,648.3,256.16,658.05,255.93,665.75Z"/><path class="cls-1" d="M262.44,799.93l-45.47-47,62.63-60.55,45,46.56-12.78,12.35-30.58-31.61L269.66,730.9l27.11,28L284,771.23l-27.11-28-12.77,12.35,31,32.07Z"/><path class="cls-1" d="M338.76,831.37l-12,12L306.6,834,374,769.26l22.34,10.39-6,93.36-20.16-9.37,1.46-16.95Zm34.47-2.1,3.12-35.65L351.07,819Z"/><path class="cls-1" d="M469.12,886.07l-20.73-1.41,5.93-86.93L516.58,802l-1.21,17.73-41.53-2.83-1.13,16.58,32.58,2.22-1.21,17.73-32.58-2.22Z"/><path class="cls-1" d="M583.61,786.48c25.75-8,48.9,4,56.76,29.22s-4.29,48.39-30,56.41-49.16-4-57.06-29.32S557.74,794.55,583.61,786.48Zm21.11,67c13.81-4.31,19.94-17.1,15.45-31.5s-16.74-21.19-30.55-16.89c-14.05,4.38-20.58,17.17-16.13,31.44S590.67,857.88,604.72,853.49Z"/><path class="cls-1" d="M684.17,729.49c20.14-17.94,46.21-16.5,63.75,3.19s16.05,45.85-4.08,63.79-46.44,16.62-64.07-3.16S663.93,747.52,684.17,729.49ZM731,781.83c10.8-9.62,11.1-23.81,1.07-35.07s-24-12.4-34.79-2.78c-11,9.79-11.66,24.14-1.72,35.3S720.05,791.62,731,781.83Z"/><path class="cls-1" d="M814.91,711.87l-79-36.86L751.82,641c11.61-24.9,32.76-33.21,57.88-21.49s32.4,34.08,21.09,58.35ZM760.83,663.7l46.81,21.85L814,671.93c7-15.11,1.66-26.2-13.28-33.17q-23.2-10.83-33.53,11.33Z"/></svg>